<svg width="32" height="32" viewBox="0 0 32 32" fill="none" xmlns="http://www.w3.org/2000/svg">
<path d="M28.0969 27.175L26.4406 17.625H27C27.45 17.625 27.8125 17.2625 27.8125 16.8125V10.8125C27.8125 10.3625 27.45 10 27 10H19.3125V4.3125C19.3125 3.8625 18.95 3.5 18.5 3.5H13.5C13.05 3.5 12.6875 3.8625 12.6875 4.3125V10H5C4.55 10 4.1875 10.3625 4.1875 10.8125V16.8125C4.1875 17.2625 4.55 17.625 5 17.625H5.55938L3.90313 27.175C3.89375 27.2219 3.89062 27.2687 3.89062 27.3125C3.89062 27.7625 4.25313 28.125 4.70313 28.125H27.2969C27.3438 28.125 27.3906 28.1219 27.4344 28.1125C27.8781 28.0375 28.175 27.6156 28.0969 27.175ZM6.375 12.1875H14.875V5.6875H17.125V12.1875H25.625V15.4375H6.375V12.1875ZM21 25.9375V21.0625C21 20.925 20.8875 20.8125 20.75 20.8125H19.25C19.1125 20.8125 19 20.925 19 21.0625V25.9375H13V21.0625C13 20.925 12.8875 20.8125 12.75 20.8125H11.25C11.1125 20.8125 11 20.925 11 21.0625V25.9375H6.3375L7.74688 17.8125H24.25L25.6594 25.9375H21Z" fill="black"/>
</svg>
