<svg width="29" height="29" viewBox="0 0 29 29" fill="none" xmlns="http://www.w3.org/2000/svg">
<g clip-path="url(#clip0_35_157)">
<path d="M28.9861 14.7713C28.9861 13.5832 28.8875 12.7162 28.6739 11.8171H14.7888V17.1796H22.9391C22.7748 18.5123 21.8875 20.5193 19.9156 21.8679L19.8879 22.0474L24.2782 25.3706L24.5823 25.4002C27.3757 22.8795 28.9861 19.1706 28.9861 14.7713Z" fill="#4285F4"/>
<path d="M14.7888 28.9004C18.7818 28.9004 22.1339 27.6159 24.5823 25.4002L19.9156 21.8679C18.6668 22.7189 16.9907 23.3129 14.7888 23.3129C10.878 23.3129 7.55876 20.7922 6.37553 17.3081L6.2021 17.3225L1.63709 20.7745L1.57739 20.9367C4.00931 25.657 9.00468 28.9004 14.7888 28.9004Z" fill="#34A853"/>
<path d="M6.37558 17.3081C6.06338 16.409 5.8827 15.4456 5.8827 14.4502C5.8827 13.4547 6.06338 12.4914 6.35916 11.5923L6.35089 11.4008L1.72867 7.89331L1.57744 7.9636C0.575129 9.92243 0 12.1221 0 14.4502C0 16.7783 0.575129 18.9778 1.57744 20.9367L6.37558 17.3081Z" fill="#FBBC05"/>
<path d="M14.7888 5.58737C17.5658 5.58737 19.439 6.75944 20.5071 7.73891L24.6809 3.75705C22.1175 1.42897 18.7818 0 14.7888 0C9.00468 0 4.00931 3.24324 1.57739 7.9636L6.35911 11.5923C7.55876 8.10816 10.878 5.58737 14.7888 5.58737Z" fill="#EB4335"/>
</g>
<defs>
<clipPath id="clip0_35_157">
<rect width="29" height="29" rx="14.5" fill="white"/>
</clipPath>
</defs>
</svg>
