<svg width="20" height="17" viewBox="0 0 20 17" fill="none" xmlns="http://www.w3.org/2000/svg">
<path d="M1 5V3C1 2.46957 1.21071 1.96086 1.58579 1.58579C1.96086 1.21071 2.46957 1 3 1H5M1 5C2.333 5 5 4.2 5 1M1 5V9M5 1H15M1 9V11C1 11.5304 1.21071 12.0391 1.58579 12.4142C1.96086 12.7893 2.46957 13 3 13H5M1 9C2.333 9 5 9.8 5 13M19 5V3C19 2.46957 18.7893 1.96086 18.4142 1.58579C18.0391 1.21071 17.5304 1 17 1H15M19 5C17.667 5 15 4.2 15 1M19 5V7M5 13H9" stroke="#09ADFC" stroke-width="2" stroke-linecap="round" stroke-linejoin="round"/>
<path d="M10 9C11.1046 9 12 8.10457 12 7C12 5.89543 11.1046 5 10 5C8.89543 5 8 5.89543 8 7C8 8.10457 8.89543 9 10 9Z" stroke="#09ADFC" stroke-width="2" stroke-linecap="round" stroke-linejoin="round"/>
<path d="M16 10V13M16 13V16M16 13H13M16 13H19" stroke="#09ADFC" stroke-width="2" stroke-linecap="round" stroke-linejoin="round"/>
</svg>
