<svg width="20" height="20" viewBox="0 0 20 20" fill="none" xmlns="http://www.w3.org/2000/svg">
<path d="M14.1667 7.5V5.83333C14.1667 4.72826 13.7277 3.66846 12.9463 2.88705C12.1649 2.10565 11.1051 1.66667 10 1.66667C8.89497 1.66667 7.83516 2.10565 7.05376 2.88705C6.27236 3.66846 5.83337 4.72826 5.83337 5.83333V7.5C5.17033 7.5 4.53445 7.76339 4.06561 8.23223C3.59677 8.70107 3.33337 9.33696 3.33337 10V15.8333C3.33337 16.4964 3.59677 17.1323 4.06561 17.6011C4.53445 18.0699 5.17033 18.3333 5.83337 18.3333H14.1667C14.8297 18.3333 15.4656 18.0699 15.9345 17.6011C16.4033 17.1323 16.6667 16.4964 16.6667 15.8333V10C16.6667 9.33696 16.4033 8.70107 15.9345 8.23223C15.4656 7.76339 14.8297 7.5 14.1667 7.5ZM7.50004 5.83333C7.50004 5.17029 7.76343 4.53441 8.23227 4.06557C8.70111 3.59672 9.337 3.33333 10 3.33333C10.6631 3.33333 11.299 3.59672 11.7678 4.06557C12.2366 4.53441 12.5 5.17029 12.5 5.83333V7.5H7.50004V5.83333ZM15 15.8333C15 16.0543 14.9122 16.2663 14.756 16.4226C14.5997 16.5789 14.3877 16.6667 14.1667 16.6667H5.83337C5.61236 16.6667 5.4004 16.5789 5.24412 16.4226C5.08784 16.2663 5.00004 16.0543 5.00004 15.8333V10C5.00004 9.77899 5.08784 9.56702 5.24412 9.41074C5.4004 9.25446 5.61236 9.16667 5.83337 9.16667H14.1667C14.3877 9.16667 14.5997 9.25446 14.756 9.41074C14.9122 9.56702 15 9.77899 15 10V15.8333Z" fill="#989898"/>
</svg>
