<svg width="20" height="20" viewBox="0 0 20 20" fill="none" xmlns="http://www.w3.org/2000/svg">
<path d="M17.5 10C17.5025 11.489 17.0596 12.9447 16.2283 14.18C15.5428 15.2025 14.6159 16.0403 13.5296 16.6193C12.4433 17.1984 11.231 17.5008 10 17.5C8.76899 17.5008 7.55674 17.1984 6.47042 16.6193C5.38411 16.0403 4.4572 15.2025 3.77167 14.18C3.11894 13.207 2.70325 12.0946 2.55792 10.932C2.41259 9.76944 2.54166 8.58896 2.93479 7.48524C3.32792 6.38151 3.97416 5.38524 4.82172 4.5763C5.66928 3.76735 6.69458 3.16822 7.81542 2.82695C8.93627 2.48568 10.1215 2.41175 11.276 2.61109C12.4306 2.81043 13.5224 3.2775 14.4639 3.97485C15.4054 4.6722 16.1705 5.58044 16.6977 6.62675C17.225 7.67307 17.4997 8.82835 17.5 10Z" stroke="#989898" stroke-width="1.5"/>
<path d="M11.0416 7.49999C11.0416 8.075 10.5749 8.54166 9.99994 8.54166V9.79166C10.6077 9.79166 11.1906 9.55022 11.6204 9.12045C12.0502 8.69068 12.2916 8.10778 12.2916 7.49999H11.0416ZM9.99994 8.54166C9.42494 8.54166 8.95828 8.075 8.95828 7.49999H7.70828C7.70828 8.10778 7.94972 8.69068 8.37949 9.12045C8.80926 9.55022 9.39216 9.79166 9.99994 9.79166V8.54166ZM8.95828 7.49999C8.95828 6.92499 9.42494 6.45833 9.99994 6.45833V5.20833C9.39216 5.20833 8.80926 5.44977 8.37949 5.87954C7.94972 6.30931 7.70828 6.89221 7.70828 7.49999H8.95828ZM9.99994 6.45833C10.5749 6.45833 11.0416 6.92499 11.0416 7.49999H12.2916C12.2916 6.89221 12.0502 6.30931 11.6204 5.87954C11.1906 5.44977 10.6077 5.20833 9.99994 5.20833V6.45833ZM4.30494 14.88L3.70578 14.7017L3.60828 15.0283L3.83078 15.2867L4.30494 14.88ZM15.6949 14.88L16.1699 15.2875L16.3916 15.0292L16.2941 14.7017L15.6949 14.88ZM7.49994 13.125H12.4999V11.875H7.49994V13.125ZM7.49994 11.875C6.64753 11.875 5.81787 12.1501 5.1343 12.6594C4.45073 13.1687 3.94973 13.8849 3.70578 14.7017L4.90411 15.0583C5.07122 14.4997 5.41405 14.0099 5.8817 13.6616C6.34934 13.3133 6.91685 13.1251 7.49994 13.125V11.875ZM9.99994 16.875C9.00779 16.8761 8.0272 16.662 7.12585 16.2474C6.22449 15.8327 5.42383 15.2275 4.77911 14.4733L3.83078 15.2867C4.59283 16.1775 5.53898 16.8933 6.60402 17.3832C7.66906 17.873 8.82765 18.1261 9.99994 18.125V16.875ZM12.4999 13.125C13.7249 13.125 14.7624 13.94 15.0958 15.0583L16.2941 14.7017C16.0502 13.8849 15.5492 13.1687 14.8656 12.6594C14.182 12.1501 13.3524 11.875 12.4999 11.875V13.125ZM15.2208 14.4733C14.5761 15.2275 13.7754 15.8327 12.874 16.2474C11.9727 16.662 10.9921 16.8761 9.99994 16.875V18.125C11.1722 18.1261 12.3308 17.873 13.3959 17.3832C14.4609 16.8933 15.4079 16.1783 16.1699 15.2875L15.2208 14.4733Z" fill="#989898"/>
</svg>
