<svg width="4" height="8" viewBox="0 0 4 8" fill="none" xmlns="http://www.w3.org/2000/svg">
<path d="M0.663692 4.09643e-05C0.749076 -0.000249358 0.83344 0.0185953 0.910584 0.0551896C0.987729 0.091784 1.05569 0.145199 1.10949 0.211508L3.86998 3.6407C3.95405 3.74296 4 3.87124 4 4.00362C4 4.136 3.95405 4.26428 3.86998 4.36654L1.01233 7.79573C0.915315 7.91245 0.775912 7.98585 0.624784 7.99978C0.473656 8.01371 0.323183 7.96704 0.206467 7.87003C0.0897505 7.77302 0.0163522 7.63362 0.00241838 7.48249C-0.0115154 7.33136 0.0351567 7.18089 0.132168 7.06417L2.68691 4.00076L0.217898 0.937352C0.148009 0.85346 0.103614 0.751304 0.0899662 0.642971C0.0763183 0.534638 0.0939882 0.424662 0.140886 0.326057C0.187783 0.227452 0.261945 0.144345 0.354596 0.0865684C0.447247 0.0287922 0.55451 -0.00123458 0.663692 4.09643e-05Z" fill="#8A8A8A"/>
</svg>
