<svg width="18" height="13" viewBox="0 0 18 13" fill="none" xmlns="http://www.w3.org/2000/svg">
<path d="M17.1 0.19873H0.9C0.403031 0.19873 0 0.601322 0 1.09775V11.886C0 12.3824 0.403031 12.785 0.9 12.785H17.1C17.597 12.785 18 12.3824 18 11.886V1.09775C18 0.601322 17.597 0.19873 17.1 0.19873ZM4.95 8.51127V8.96415C4.95 9.08833 4.84931 9.1889 4.725 9.1889H4.275C4.15069 9.1889 4.05 9.08833 4.05 8.96415V8.50649C3.73247 8.4902 3.42366 8.37951 3.16772 8.18762C3.05803 8.10531 3.05241 7.94124 3.15169 7.84656L3.48216 7.53162C3.56006 7.45745 3.67594 7.45408 3.76706 7.51111C3.87591 7.5791 3.99937 7.61562 4.12762 7.61562H4.91822C5.10103 7.61562 5.25009 7.44931 5.25009 7.24506C5.25009 7.0779 5.14856 6.93069 5.00344 6.88742L3.73781 6.50815C3.21497 6.35138 2.84962 5.85018 2.84962 5.28914C2.84962 4.60026 3.38541 4.04063 4.04972 4.02293V3.57005C4.04972 3.44587 4.15041 3.34529 4.27472 3.34529H4.72472C4.84903 3.34529 4.94972 3.44587 4.94972 3.57005V4.0277C5.26725 4.044 5.57606 4.15441 5.832 4.34657C5.94169 4.42889 5.94731 4.59296 5.84803 4.68764L5.51756 5.00257C5.43966 5.07674 5.32378 5.08011 5.23266 5.02308C5.12381 4.95481 5.00034 4.91857 4.87209 4.91857H4.0815C3.89869 4.91857 3.74963 5.08489 3.74963 5.28914C3.74963 5.4563 3.85116 5.60351 3.99628 5.64678L5.26191 6.02605C5.78475 6.18281 6.15009 6.68402 6.15009 7.24506C6.15009 7.93421 5.61431 8.49357 4.95 8.51127ZM11.7 8.06513C11.7 8.18931 11.5993 8.28989 11.475 8.28989H8.325C8.20069 8.28989 8.1 8.18931 8.1 8.06513V7.61562C8.1 7.49145 8.20069 7.39087 8.325 7.39087H11.475C11.5993 7.39087 11.7 7.49145 11.7 7.61562V8.06513ZM16.2 8.06513C16.2 8.18931 16.0993 8.28989 15.975 8.28989H13.725C13.6007 8.28989 13.5 8.18931 13.5 8.06513V7.61562C13.5 7.49145 13.6007 7.39087 13.725 7.39087H15.975C16.0993 7.39087 16.2 7.49145 16.2 7.61562V8.06513ZM16.2 5.36808C16.2 5.49226 16.0993 5.59283 15.975 5.59283H8.325C8.20069 5.59283 8.1 5.49226 8.1 5.36808V4.91857C8.1 4.79439 8.20069 4.69382 8.325 4.69382H15.975C16.0993 4.69382 16.2 4.79439 16.2 4.91857V5.36808Z" fill="#09ADFC"/>
</svg>
