<svg width="24" height="24" viewBox="0 0 24 24" fill="none" xmlns="http://www.w3.org/2000/svg">
<path d="M11.052 14.4392H7.66152C7.46088 14.4392 7.2984 14.6017 7.2984 14.8023V20.0665C7.2984 20.2671 7.46088 20.4296 7.66152 20.4296H11.052C11.2526 20.4296 11.4149 20.2671 11.4149 20.0665V14.8021C11.4149 14.6014 11.2524 14.4392 11.052 14.4392ZM16.3385 3.5708H12.948C12.7474 3.5708 12.5849 3.73328 12.5849 3.93392V20.0662C12.5849 20.2669 12.7474 20.4294 12.948 20.4294H16.3385C16.5391 20.4294 16.7016 20.2669 16.7016 20.0662V3.93392C16.7016 3.73328 16.5391 3.5708 16.3385 3.5708ZM21.6521 8.47184H18.2616C18.061 8.47184 17.8985 8.63432 17.8985 8.83496V20.0662C17.8985 20.2669 18.061 20.4294 18.2616 20.4294H21.6518C21.8525 20.4294 22.015 20.2669 22.015 20.0662V8.83496C22.015 8.63456 21.8525 8.47184 21.6521 8.47184ZM5.7384 8.47184H2.34792C2.14728 8.47184 1.9848 8.63432 1.9848 8.83496V20.0662C1.9848 20.2669 2.14728 20.4294 2.34792 20.4294H5.7384C5.93904 20.4294 6.10152 20.2669 6.10152 20.0662V8.83496C6.10152 8.63456 5.93904 8.47184 5.7384 8.47184Z" fill="#09ADFC"/>
</svg>
