<svg width="38" height="37" viewBox="0 0 38 37" fill="none" xmlns="http://www.w3.org/2000/svg">
<path d="M34.7878 7.98577L17.0991 25.5916L10.5259 19.0549L12.7118 16.8812L17.0991 21.2441L32.6019 5.82743L34.7878 7.98577ZM31.3617 15.7558C31.5632 16.6345 31.6873 17.5595 31.6873 18.4999C31.6873 25.3141 26.1373 30.8333 19.285 30.8333C12.4328 30.8333 6.88279 25.3141 6.88279 18.4999C6.88279 11.6858 12.4328 6.1666 19.285 6.1666C21.7345 6.1666 23.9979 6.87577 25.9202 8.09368L28.1526 5.87368C25.5581 4.05382 22.46 3.0789 19.285 3.08327C10.7275 3.08327 3.78223 9.98993 3.78223 18.4999C3.78223 27.0099 10.7275 33.9166 19.285 33.9166C27.8426 33.9166 34.7878 27.0099 34.7878 18.4999C34.7878 16.6653 34.4467 14.9078 33.8576 13.2737L31.3617 15.7558Z" fill="#33B06C"/>
</svg>
