<svg width="27" height="27" viewBox="0 0 27 27" fill="none" xmlns="http://www.w3.org/2000/svg">
<path d="M22.5872 16.2179L10.782 4.41275C9.93736 3.5682 8.79184 3.09375 7.59741 3.09375C6.40297 3.09375 5.25745 3.5682 4.41281 4.41275C3.56827 5.25739 3.09381 6.40291 3.09381 7.59735C3.09381 8.79178 3.56827 9.9373 4.41281 10.7819L16.218 22.5871C17.0626 23.4317 18.2082 23.9061 19.4026 23.9061C20.597 23.9061 21.7425 23.4317 22.5872 22.5871C23.4317 21.7425 23.9062 20.597 23.9062 19.4025C23.9062 18.2081 23.4317 17.0626 22.5872 16.2179Z" stroke="#09ADFC" stroke-linecap="round" stroke-linejoin="round"/>
<path d="M19.8692 13.4999L22.5872 10.7819C23.4317 9.9373 23.9062 8.79178 23.9062 7.59735C23.9062 6.40291 23.4317 5.25739 22.5872 4.41275C21.7425 3.5682 20.597 3.09375 19.4026 3.09375C18.2082 3.09375 17.0626 3.5682 16.218 4.41275L13.4916 7.13919M7.13081 13.4999L4.41281 16.2179C3.56827 17.0626 3.09381 18.2081 3.09381 19.4025C3.09381 20.597 3.56827 21.7425 4.41281 22.5871C5.25745 23.4317 6.40297 23.9061 7.59741 23.9061C8.79184 23.9061 9.93736 23.4317 10.782 22.5871L13.4916 19.8776" stroke="#09ADFC" stroke-linecap="round" stroke-linejoin="round"/>
<path d="M19.3191 21.6528C20.5617 21.6528 21.5691 20.6455 21.5691 19.4028C21.5691 18.1602 20.5617 17.1528 19.3191 17.1528C18.0764 17.1528 17.0691 18.1602 17.0691 19.4028C17.0691 20.6455 18.0764 21.6528 19.3191 21.6528Z" stroke="#09ADFC" stroke-linecap="round" stroke-linejoin="round"/>
</svg>
